<svg width="38" height="25" viewBox="0 0 38 25" fill="none" xmlns="http://www.w3.org/2000/svg">
<g clip-path="url(#clip0_217_131)">
<path d="M35 24.9999H2.5C1.83696 24.9999 1.20107 24.7365 0.732233 24.2677C0.263392 23.7989 0 23.163 0 22.4999L0 11.9833H1.80104L2.20729 10.9999H3.11667L3.52187 11.9791H7.06562V11.2343L7.38229 11.9843H9.22187L9.53854 11.2218V11.9822H18.3437V10.3739H18.5104C18.6292 10.3781 18.6635 10.3885 18.6635 10.5864V11.9843H23.2188V11.6103C23.6844 11.8468 24.2333 11.9853 24.8156 11.9853L24.9146 11.9843H24.9094H26.826L27.2365 11.0051H28.1458L28.5469 11.9843H32.2406V11.0531L32.799 11.9843H35.7531V5.83431H32.8292V6.56035L32.4198 5.83431H29.4135V6.56035L29.0375 5.83431H24.9781C24.3631 5.80323 23.7503 5.9298 23.1979 6.20201L23.2198 6.19264V5.83431H20.4198V6.19264C20.0809 5.92551 19.6528 5.79772 19.2229 5.83535H19.2292H8.99687L8.31042 7.42389L7.60521 5.83535H4.38229V6.56139L4.02708 5.83535H1.27708L0.003125 8.75201V2.50201C0.003125 1.83897 0.266517 1.20309 0.735358 0.734247C1.2042 0.265406 1.84008 0.00201416 2.50313 0.00201416H35.0031C35.6662 0.00201416 36.302 0.265406 36.7709 0.734247C37.2397 1.20309 37.5031 1.83897 37.5031 2.50201V13.4187H35.5521C35.5208 13.4166 35.4833 13.4166 35.4469 13.4166C34.9948 13.4166 34.575 13.552 34.225 13.7843L34.2333 13.7791V13.4187H31.3479C30.8971 13.3938 30.4511 13.5219 30.0823 13.7822L30.0885 13.7781V13.4176H24.9365V13.7781C24.5147 13.5402 24.0384 13.416 23.5542 13.4176H23.5135H23.5156H20.1167V13.7781C19.6726 13.4936 19.1457 13.367 18.6208 13.4187L18.6302 13.4176H14.8271L13.9562 14.3593L13.1417 13.4176H7.46042V19.5718H13.0354L13.9323 18.6156L14.7771 19.5718H18.2135V18.1312H18.6927C19.1534 18.1492 19.613 18.0722 20.0427 17.9051L20.0198 17.9135V19.5739H22.8531V17.9708H22.9896C23.1625 17.9708 23.1802 17.977 23.1802 18.152V19.5749H31.7906L31.8958 19.577C32.3896 19.577 32.85 19.4291 33.2333 19.176L33.224 19.1812V19.5749H35.9552L36.0854 19.577C36.5969 19.577 37.0833 19.4718 37.525 19.2812L37.501 19.2906V22.501C37.501 23.164 37.2376 23.7999 36.7688 24.2687C36.3 24.7376 35.6641 25.001 35.001 25.001L35 24.9999ZM21.9844 18.7093H20.924V14.2978H23.3573C23.7968 14.2571 24.2393 14.331 24.6417 14.5124L24.625 14.5062C24.951 14.6853 25.1687 15.027 25.1687 15.4187L25.1667 15.4885V15.4853L25.1677 15.5249C25.1677 16.0312 24.8625 16.4666 24.425 16.6562L24.4167 16.6593C24.626 16.7343 24.801 16.8624 24.9312 17.0281L24.9333 17.0301C25.0804 17.2736 25.142 17.5592 25.1083 17.8416L25.1094 17.8353V18.7083H24.051V18.1562C24.1011 17.8556 24.0408 17.547 23.8812 17.2874L23.8844 17.2926C23.7744 17.2092 23.6487 17.1489 23.5148 17.1154C23.3808 17.0819 23.2415 17.0759 23.1052 17.0978L23.1115 17.0968H21.9844V18.7083V18.7093ZM21.9844 15.2093V16.1999H23.2656C23.4466 16.2166 23.6286 16.1843 23.7927 16.1062L23.7865 16.1093C23.8535 16.066 23.9086 16.0066 23.9468 15.9366C23.985 15.8666 24.0051 15.7881 24.0052 15.7083L24.0042 15.6843C24.0093 15.6047 23.9918 15.5263 23.9536 15.4562C23.9155 15.3862 23.8582 15.3284 23.7885 15.2895L23.7865 15.2885C23.6284 15.2178 23.4547 15.1891 23.2823 15.2051H23.2865L21.9844 15.2093ZM12.5833 18.7083H8.40937V14.2978H12.649L13.9458 15.7437L15.2865 14.2978H18.6542C19.85 14.2978 20.4312 14.7739 20.4312 15.751C20.4312 16.7458 19.8302 17.2291 18.5979 17.2291H17.2802V18.7072H15.2312L13.9333 17.2499L12.5833 18.7083ZM16.2302 14.7708L14.6115 16.5103L16.2302 18.3062V14.7708ZM9.46042 16.9114V17.7885H12.0521L13.25 16.4947L12.0979 15.2093H9.45937V16.0114H11.774V16.9103L9.46042 16.9114ZM17.2802 15.2103V16.3333H18.6417C19.0583 16.3333 19.2979 16.1208 19.2979 15.7499C19.2979 15.3958 19.075 15.2093 18.6531 15.2093L17.2802 15.2103ZM36.0698 18.7103H34.0344V17.7624H36.0615C36.2131 17.7833 36.3669 17.7437 36.4896 17.652L36.4885 17.6531C36.5277 17.6167 36.5589 17.5727 36.5802 17.5238C36.6016 17.4749 36.6125 17.4221 36.6125 17.3687V17.352C36.6126 17.2993 36.6012 17.2472 36.579 17.1993C36.5569 17.1515 36.5246 17.109 36.4844 17.0749C36.3766 16.997 36.2436 16.9621 36.1115 16.977H36.1135L35.9187 16.9708C34.9667 16.9458 33.8885 16.9166 33.8885 15.6114C33.8885 14.976 34.2865 14.2978 35.4 14.2978H37.501V15.2374H35.5792C35.4307 15.2208 35.2808 15.2507 35.15 15.3228L35.1542 15.3208C35.1027 15.3546 35.0614 15.4017 35.0344 15.457C35.0075 15.5124 34.996 15.574 35.001 15.6353V15.6343V15.6458C35.001 15.716 35.0232 15.7844 35.0643 15.8412C35.1055 15.8981 35.1635 15.9405 35.2302 15.9624L35.2323 15.9635C35.3644 16.0042 35.5026 16.0211 35.6406 16.0135H35.6375L36.2094 16.0281C36.6404 15.985 37.0711 16.1134 37.4083 16.3853L37.4052 16.3833C37.4365 16.4083 37.4635 16.4353 37.4875 16.4656L37.4885 16.4666L37.501 18.1458C37.3259 18.3505 37.103 18.5089 36.8522 18.6072C36.6013 18.7055 36.3301 18.7405 36.0625 18.7093L36.0698 18.7103ZM31.9562 18.7103H29.9021V17.7624H31.9458C32.0988 17.7825 32.2535 17.7429 32.3781 17.652L32.376 17.6531C32.4149 17.6166 32.4459 17.5726 32.4671 17.5236C32.4882 17.4747 32.4991 17.422 32.499 17.3687V17.3583C32.4989 17.3047 32.4875 17.2517 32.4654 17.2028C32.4433 17.154 32.4111 17.1104 32.3708 17.0749C32.2611 16.9969 32.1265 16.9621 31.9927 16.977H31.9948L31.801 16.9708C30.8521 16.9458 29.775 16.9166 29.775 15.6114C29.775 14.976 30.1708 14.2978 31.2823 14.2978H33.3948V15.2374H31.4615C31.314 15.221 31.1651 15.2508 31.0354 15.3228L31.0396 15.3208C30.9849 15.3584 30.9413 15.4102 30.9136 15.4705C30.8858 15.5309 30.8749 15.5976 30.882 15.6636C30.889 15.7297 30.9137 15.7926 30.9536 15.8457C30.9934 15.8989 31.0469 15.9403 31.1083 15.9656L31.1104 15.9666C31.2442 16.0076 31.3842 16.0246 31.524 16.0166H31.5208L32.0885 16.0312C32.5219 15.9894 32.9545 16.1179 33.2948 16.3895L33.2917 16.3864C33.4061 16.5126 33.4932 16.6611 33.5473 16.8227C33.6015 16.9842 33.6215 17.1552 33.6062 17.3249V17.3197C33.6094 18.2395 33.0521 18.7083 31.9531 18.7083L31.9562 18.7103ZM29.2708 18.7103H25.75V14.2968H29.2677V15.2083H26.8021V16.0103H29.2104V16.9093H26.8021V17.7864L29.2708 17.7906V18.7072V18.7103ZM31.3229 11.1208H29.176L28.7656 10.1374H26.576L26.1781 11.1208H24.9448C24.3909 11.15 23.8455 10.9754 23.4115 10.6301L23.4167 10.6333C23.2105 10.4057 23.0539 10.1376 22.9571 9.84617C22.8602 9.55473 22.8252 9.2463 22.8542 8.94056L22.8531 8.94889C22.8263 8.63752 22.8631 8.32394 22.9612 8.02722C23.0593 7.7305 23.2168 7.45683 23.424 7.22285L23.4219 7.22493C23.6406 7.03366 23.8964 6.88946 24.1733 6.80129C24.4501 6.71312 24.7422 6.68287 25.0312 6.71243L25.0229 6.71139H26.0437V7.65201H25.0437C24.8974 7.63316 24.7487 7.64682 24.6083 7.69202C24.4679 7.73721 24.3391 7.81282 24.2312 7.91347L24.2323 7.91243C24.0096 8.19765 23.9015 8.55579 23.9292 8.9166V8.91139C23.896 9.28209 24.0001 9.65206 24.2219 9.95097L24.2187 9.94681C24.4258 10.116 24.6909 10.1975 24.9573 10.1739H24.9531H25.426L26.9167 6.70514H28.5L30.2844 10.8718V6.70514H31.8896L33.7417 9.77597V6.70514H34.825V11.1135H33.3208L31.3208 7.80306V11.1135L31.3229 11.1208ZM27.6781 7.45618L26.9521 9.21451H28.4073L27.6781 7.45618ZM17.4708 11.1187H16.4167V6.70826H18.8417C19.2843 6.66233 19.7312 6.73758 20.1344 6.92597L20.1187 6.91972C20.2809 7.00938 20.416 7.1408 20.5102 7.30035C20.6043 7.4599 20.6541 7.64175 20.6542 7.82701L20.6521 7.89993V7.89681V7.9291C20.6522 8.16967 20.5828 8.40516 20.4524 8.6073C20.3219 8.80944 20.1359 8.96964 19.9167 9.06868L19.9083 9.07181C20.1177 9.15097 20.2937 9.27806 20.4281 9.44056L20.4302 9.44264C20.5788 9.68699 20.6402 9.97454 20.6042 10.2583L20.6052 10.252V11.1176H19.5417L19.5375 10.5614V10.4781C19.5753 10.2061 19.5152 9.9295 19.3677 9.69785L19.3708 9.70306C19.2605 9.622 19.1352 9.56361 19.0022 9.53125C18.8692 9.49889 18.7311 9.4932 18.5958 9.51451L18.6021 9.51347H17.4719V11.1176L17.4708 11.1187ZM17.4708 7.62597V8.60514H18.75C18.9307 8.62474 19.1132 8.59221 19.276 8.51139L19.2708 8.51347C19.3376 8.47291 19.3927 8.41586 19.431 8.34782C19.4693 8.27977 19.4895 8.20302 19.4896 8.12493L19.4885 8.09576C19.4938 8.01661 19.4759 7.93869 19.4368 7.86964C19.3977 7.8006 19.3393 7.7445 19.2687 7.70826L19.2667 7.70722C19.1082 7.63921 18.9355 7.61062 18.7635 7.62389H18.7667L17.4708 7.62597ZM6.30833 11.1187H4.16667L3.76146 10.1353H1.56562L1.15729 11.1187H0.0114583L1.9 6.70826H3.46562L5.25833 10.8822V6.70826H6.97812L8.35729 9.69889L9.625 6.70826H11.3802V11.1166H10.2969L10.2948 7.6666L8.76667 11.1176H7.84167L6.30937 7.66139V11.1176L6.30833 11.1187ZM2.65833 7.45618L1.94062 9.21451H3.38021L2.65833 7.45618ZM22.3333 11.1176H21.2583V6.70826H22.3344V11.1166L22.3333 11.1176ZM15.6812 11.1176H12.1667V6.70826H15.6875V7.62493H13.2208V8.41972H15.6281V9.32493H13.2187V10.2062H15.6854V11.1166L15.6812 11.1176Z" fill="#4ECB71"/>
</g>
<defs>
<clipPath id="clip0_217_131">
<rect width="37.5" height="25" fill="white"/>
</clipPath>
</defs>
</svg>
