<svg width="36" height="36" viewBox="0 0 36 36" fill="none" xmlns="http://www.w3.org/2000/svg">
<path d="M26.75 18C27.0815 18 27.3995 18.1317 27.6339 18.3661C27.8683 18.6005 28 18.9185 28 19.25C28 19.5815 27.8683 19.8995 27.6339 20.1339C27.3995 20.3683 27.0815 20.5 26.75 20.5H9.25C8.91848 20.5 8.60054 20.3683 8.36612 20.1339C8.1317 19.8995 8 19.5815 8 19.25C8 18.9185 8.1317 18.6005 8.36612 18.3661C8.60054 18.1317 8.91848 18 9.25 18H26.75ZM26.75 25.5H9.25C8.91848 25.5 8.60054 25.6317 8.36612 25.8661C8.1317 26.1005 8 26.4185 8 26.75C8 27.0815 8.1317 27.3995 8.36612 27.6339C8.60054 27.8683 8.91848 28 9.25 28H26.75C27.0815 28 27.3995 27.8683 27.6339 27.6339C27.8683 27.3995 28 27.0815 28 26.75C28 26.4185 27.8683 26.1005 27.6339 25.8661C27.3995 25.6317 27.0815 25.5 26.75 25.5ZM35.5 29.25C35.5 30.9076 34.8415 32.4973 33.6694 33.6694C32.4973 34.8415 30.9076 35.5 29.25 35.5H6.75C5.0924 35.5 3.50269 34.8415 2.33058 33.6694C1.15848 32.4973 0.5 30.9076 0.5 29.25V6.75C0.5 5.0924 1.15848 3.50269 2.33058 2.33058C3.50269 1.15848 5.0924 0.5 6.75 0.5H29.25C30.9076 0.5 32.4973 1.15848 33.6694 2.33058C34.8415 3.50269 35.5 5.0924 35.5 6.75V29.25ZM6.75 33H29.25C30.2446 33 31.1984 32.6049 31.9017 31.9017C32.6049 31.1984 33 30.2446 33 29.25V6.75C33 5.75544 32.6049 4.80161 31.9017 4.09835C31.1984 3.39509 30.2446 3 29.25 3H6.75C5.75544 3 4.80161 3.39509 4.09835 4.09835C3.39509 4.80161 3 5.75544 3 6.75V29.25C3 30.2446 3.39509 31.1984 4.09835 31.9017C4.80161 32.6049 5.75544 33 6.75 33Z" fill="black"/>
</svg>
