<svg width="25" height="29" viewBox="0 0 25 29" fill="none" xmlns="http://www.w3.org/2000/svg">
<path d="M19.1406 0H5.85938C2.62333 0 0 2.93994 0 6.56654V21.4507C0 25.0773 2.62333 28.0172 5.85938 28.0172H19.1406C22.3767 28.0172 25 25.0773 25 21.4507V6.56654C25 2.93994 22.3767 0 19.1406 0Z" fill="url(#paint0_radial_217_107)"/>
<path d="M19.1406 0H5.85938C2.62333 0 0 2.93994 0 6.56654V21.4507C0 25.0773 2.62333 28.0172 5.85938 28.0172H19.1406C22.3767 28.0172 25 25.0773 25 21.4507V6.56654C25 2.93994 22.3767 0 19.1406 0Z" fill="url(#paint1_radial_217_107)"/>
<path d="M12.5009 3.06439C9.84873 3.06439 9.51582 3.07742 8.47422 3.1305C7.43457 3.1839 6.7249 3.36831 6.104 3.63896C5.46162 3.91848 4.9168 4.29244 4.37402 4.90094C3.83076 5.50933 3.49707 6.11991 3.24688 6.8395C3.00469 7.53555 2.83994 8.3312 2.79316 9.49577C2.74658 10.6632 2.73438 11.0364 2.73438 14.0087C2.73438 16.9811 2.74609 17.353 2.79336 18.5203C2.84121 19.6854 3.00576 20.4807 3.24707 21.1766C3.49668 21.8965 3.83037 22.507 4.37334 23.1153C4.91602 23.7242 5.46084 24.099 6.10273 24.3785C6.72412 24.6492 7.43389 24.8336 8.47334 24.887C9.51504 24.9401 9.84766 24.9531 12.4997 24.9531C15.1521 24.9531 15.484 24.9401 16.5256 24.887C17.5652 24.8336 18.2757 24.6492 18.8971 24.3785C19.5392 24.099 20.0832 23.7242 20.6258 23.1153C21.169 22.507 21.5026 21.8965 21.7529 21.1769C21.993 20.4807 22.1578 19.6852 22.2066 18.5205C22.2534 17.3532 22.2656 16.9811 22.2656 14.0087C22.2656 11.0364 22.2534 10.6634 22.2066 9.49599C22.1578 8.33087 21.993 7.53566 21.7529 6.83983C21.5026 6.11991 21.169 5.50933 20.6258 4.90094C20.0826 4.29223 19.5394 3.91826 18.8965 3.63907C18.2739 3.36831 17.5639 3.18379 16.5242 3.1305C15.4825 3.07742 15.1509 3.06439 12.4979 3.06439H12.5009ZM11.6248 5.03665C11.8849 5.03621 12.175 5.03665 12.5009 5.03665C15.1084 5.03665 15.4174 5.04716 16.4471 5.09958C17.3992 5.14839 17.916 5.32668 18.2603 5.4765C18.716 5.67481 19.0409 5.91197 19.3825 6.29513C19.7243 6.67818 19.9358 7.04295 20.1133 7.55372C20.247 7.93895 20.4063 8.51812 20.4496 9.58519C20.4964 10.7389 20.5065 11.0854 20.5065 14.0062C20.5065 16.927 20.4964 17.2736 20.4496 18.4273C20.4061 19.4943 20.247 20.0735 20.1133 20.4588C19.9363 20.9696 19.7243 21.3333 19.3825 21.7161C19.0407 22.0992 18.7162 22.3362 18.2603 22.5346C17.9164 22.6851 17.3992 22.863 16.4471 22.9118C15.4176 22.9642 15.1084 22.9756 12.5009 22.9756C9.89326 22.9756 9.58418 22.9642 8.55478 22.9118C7.60264 22.8625 7.08584 22.6842 6.74131 22.5344C6.28564 22.336 5.96006 22.0989 5.61826 21.7159C5.27646 21.3328 5.06494 20.9689 4.8875 20.458C4.75381 20.0726 4.59453 19.4934 4.55117 18.4264C4.50439 17.2726 4.49502 16.9261 4.49502 14.0035C4.49502 11.0809 4.50439 10.7362 4.55117 9.58245C4.59473 8.51539 4.75381 7.93622 4.8875 7.55043C5.06455 7.03967 5.27646 6.6749 5.61836 6.29185C5.96016 5.9088 6.28564 5.67164 6.74141 5.47289C7.08564 5.32241 7.60264 5.14456 8.55478 5.09553C9.45566 5.0499 9.80479 5.03621 11.6248 5.03392V5.03665ZM17.7138 6.85383C17.0668 6.85383 16.5419 7.44154 16.5419 8.1667C16.5419 8.89176 17.0668 9.48001 17.7138 9.48001C18.3607 9.48001 18.8856 8.89176 18.8856 8.1667C18.8856 7.44165 18.3607 6.8534 17.7138 6.8534V6.85383ZM12.5009 8.38833C9.73135 8.38833 7.48584 10.9048 7.48584 14.0087C7.48584 17.1126 9.73135 19.6279 12.5009 19.6279C15.2705 19.6279 17.5152 17.1126 17.5152 14.0087C17.5152 10.905 15.2703 8.38833 12.5007 8.38833H12.5009ZM12.5009 10.3606C14.2986 10.3606 15.7562 11.9938 15.7562 14.0087C15.7562 16.0235 14.2986 17.6569 12.5009 17.6569C10.703 17.6569 9.2457 16.0235 9.2457 14.0087C9.2457 11.9938 10.703 10.3606 12.5009 10.3606Z" fill="white"/>
<defs>
<radialGradient id="paint0_radial_217_107" cx="0" cy="0" r="1" gradientUnits="userSpaceOnUse" gradientTransform="translate(6.64062 30.1751) rotate(-90) scale(27.7672 23.0444)">
<stop stop-color="#FFDD55"/>
<stop offset="0.1" stop-color="#FFDD55"/>
<stop offset="0.5" stop-color="#FF543E"/>
<stop offset="1" stop-color="#C837AB"/>
</radialGradient>
<radialGradient id="paint1_radial_217_107" cx="0" cy="0" r="1" gradientUnits="userSpaceOnUse" gradientTransform="translate(-4.1876 2.01823) rotate(79.8733) scale(12.3633 45.8334)">
<stop stop-color="#3771C8"/>
<stop offset="0.128" stop-color="#3771C8"/>
<stop offset="1" stop-color="#6600FF" stop-opacity="0"/>
</radialGradient>
</defs>
</svg>
