<svg width="33" height="25" viewBox="0 0 33 25" fill="none" xmlns="http://www.w3.org/2000/svg">
<g clip-path="url(#clip0_201_193)">
<path d="M5.85131 24.8758V23.2211C5.85131 22.5867 5.46513 22.1731 4.8032 22.1731C4.47229 22.1731 4.11375 22.2834 3.86551 22.642C3.67254 22.3386 3.39679 22.1731 2.9831 22.1731C2.70722 22.1731 2.43159 22.2558 2.21086 22.5592V22.2283H1.63171V24.8758H2.21086V23.4141C2.21086 22.9454 2.4591 22.7246 2.84528 22.7246C3.23121 22.7246 3.42443 22.9729 3.42443 23.4141V24.8758H4.00357V23.4141C4.00357 22.9454 4.2792 22.7246 4.63774 22.7246C5.02393 22.7246 5.21689 22.9729 5.21689 23.4141V24.8758H5.85131ZM14.4281 22.2283H13.4905V21.4285H12.9114V22.2283H12.3874V22.7522H12.9112V23.9657C12.9112 24.5725 13.1595 24.9309 13.8214 24.9309C14.0697 24.9309 14.3453 24.8483 14.5385 24.738L14.3729 24.2415C14.2075 24.3518 14.0145 24.3794 13.8766 24.3794C13.6008 24.3794 13.4905 24.214 13.4905 23.9381V22.7522H14.4281V22.2283ZM19.3371 22.173C19.0062 22.173 18.7856 22.3386 18.6477 22.5592V22.2283H18.0685V24.8758H18.6477V23.3866C18.6477 22.9454 18.8406 22.6971 19.1992 22.6971C19.3095 22.6971 19.4474 22.7248 19.5577 22.7523L19.7232 22.2008C19.6129 22.1731 19.4474 22.1731 19.3371 22.1731M11.9185 22.449C11.6426 22.2559 11.2566 22.1733 10.8429 22.1733C10.1811 22.1733 9.73988 22.5042 9.73988 23.0282C9.73988 23.4695 10.0708 23.7176 10.6499 23.8004L10.9257 23.828C11.2291 23.8831 11.3945 23.9658 11.3945 24.1038C11.3945 24.2968 11.1739 24.4347 10.7877 24.4347C10.4016 24.4347 10.0983 24.2968 9.90521 24.1589L9.62945 24.6001C9.93284 24.8207 10.3465 24.931 10.7601 24.931C11.5323 24.931 11.9737 24.5726 11.9737 24.0761C11.9737 23.6073 11.6151 23.3591 11.0635 23.2764L10.7877 23.2488C10.5395 23.2211 10.3465 23.1661 10.3465 23.0006C10.3465 22.8076 10.5395 22.6973 10.8429 22.6973C11.1739 22.6973 11.5048 22.8351 11.6703 22.9179L11.9185 22.449ZM27.3073 22.1733C26.9763 22.1733 26.7557 22.3387 26.6178 22.5593V22.2284H26.0386V24.8759H26.6178V23.3867C26.6178 22.9455 26.8109 22.6973 27.1693 22.6973C27.2797 22.6973 27.4176 22.7249 27.5279 22.7524L27.6934 22.2009C27.5831 22.1733 27.4176 22.1733 27.3073 22.1733ZM19.9163 23.5522C19.9163 24.3519 20.4678 24.931 21.3228 24.931C21.7088 24.931 21.9846 24.8484 22.2604 24.6278L21.9846 24.1589C21.764 24.3244 21.5434 24.4071 21.2952 24.4071C20.8263 24.4071 20.4954 24.0762 20.4954 23.5522C20.4954 23.0558 20.8263 22.7248 21.2952 22.6973C21.5434 22.6973 21.764 22.7799 21.9846 22.9455L22.2604 22.4767C21.9846 22.2559 21.7088 22.1733 21.3228 22.1733C20.4678 22.1733 19.9163 22.7524 19.9163 23.5522ZM25.2665 23.5522V22.2284H24.6874V22.5593C24.4943 22.3112 24.2185 22.1733 23.86 22.1733C23.1154 22.1733 22.5362 22.7524 22.5362 23.5522C22.5362 24.3519 23.1154 24.931 23.86 24.931C24.246 24.931 24.5219 24.7932 24.6874 24.545V24.8759H25.2665V23.5522ZM23.1429 23.5522C23.1429 23.0833 23.4463 22.6973 23.9426 22.6973C24.4115 22.6973 24.7425 23.0558 24.7425 23.5522C24.7425 24.021 24.4115 24.4071 23.9426 24.4071C23.4463 24.3794 23.1429 24.021 23.1429 23.5522ZM16.2208 22.1733C15.4485 22.1733 14.8969 22.7248 14.8969 23.5522C14.8969 24.3795 15.4484 24.931 16.2483 24.931C16.6344 24.931 17.0205 24.8207 17.3239 24.5726L17.048 24.1589C16.8274 24.3244 16.5517 24.4347 16.2759 24.4347C15.9174 24.4347 15.5589 24.2692 15.4761 23.8003H17.4342V23.5798C17.4619 22.7248 16.9655 22.1733 16.2208 22.1733ZM16.2207 22.6696C16.5791 22.6696 16.8274 22.8903 16.8825 23.304H15.5036C15.5587 22.9455 15.807 22.6696 16.2207 22.6696ZM30.589 23.5522V21.1804H30.0099V22.5593C29.8168 22.3112 29.541 22.1733 29.1825 22.1733C28.4379 22.1733 27.8587 22.7524 27.8587 23.5522C27.8587 24.3519 28.4379 24.931 29.1825 24.931C29.5686 24.931 29.8444 24.7932 30.0099 24.545V24.8759H30.589V23.5522ZM28.4655 23.5522C28.4655 23.0833 28.7688 22.6973 29.2653 22.6973C29.7341 22.6973 30.065 23.0558 30.065 23.5522C30.065 24.021 29.7341 24.4071 29.2653 24.4071C28.7688 24.3794 28.4655 24.021 28.4655 23.5522ZM9.10533 23.5522V22.2284H8.52619V22.5593C8.3331 22.3112 8.05734 22.1733 7.6988 22.1733C6.9542 22.1733 6.37506 22.7524 6.37506 23.5522C6.37506 24.3519 6.9542 24.931 7.6988 24.931C8.08498 24.931 8.36073 24.7932 8.52619 24.545V24.8759H9.10533V23.5522ZM6.9542 23.5522C6.9542 23.0833 7.25759 22.6973 7.75395 22.6973C8.22279 22.6973 8.55382 23.0558 8.55382 23.5522C8.55382 24.021 8.22279 24.4071 7.75395 24.4071C7.25759 24.3794 6.9542 24.021 6.9542 23.5522Z" fill="black"/>
<path d="M11.7255 2.12354H20.4127V17.733H11.7255V2.12354Z" fill="#FF5F00"/>
<path d="M12.2771 9.92827C12.2771 6.75678 13.7663 3.94372 16.0553 2.12349C14.3731 0.799749 12.2496 0 9.93303 0C4.44471 0 0.00463867 4.44008 0.00463867 9.92827C0.00463867 15.4165 4.44471 19.8565 9.93291 19.8565C12.2495 19.8565 14.373 19.0568 16.0553 17.7329C13.7663 15.9403 12.2771 13.0997 12.2771 9.92827Z" fill="#EB001B"/>
<path d="M32.1335 9.92827C32.1335 15.4163 27.6934 19.8565 22.2052 19.8565C19.8887 19.8565 17.7652 19.0568 16.0829 17.7329C18.3995 15.9128 19.8612 13.0997 19.8612 9.92827C19.8612 6.75678 18.3718 3.94372 16.0829 2.12349C17.765 0.799749 19.8887 0 22.2052 0C27.6934 0 32.1335 4.46771 32.1335 9.92827Z" fill="#F79E1B"/>
</g>
<defs>
<clipPath id="clip0_201_193">
<rect width="32.17" height="25" fill="white"/>
</clipPath>
</defs>
</svg>
