<svg width="22" height="25" viewBox="0 0 22 25" fill="none" xmlns="http://www.w3.org/2000/svg">
<g clip-path="url(#clip0_201_188)">
<path d="M17.9814 1.9459C16.8279 0.631164 14.7429 0.0675049 12.0754 0.0675049H4.33366C4.06973 0.0674642 3.81444 0.161604 3.61372 0.332989C3.413 0.504375 3.28003 0.741758 3.23871 1.00244L0.015201 21.4467C-0.0488718 21.8499 0.263297 22.2149 0.671906 22.2149H5.45138L6.65171 14.6014L6.61446 14.8399C6.69997 14.3017 7.16023 13.9048 7.70527 13.9048H9.97646C14.4382 13.9048 17.9318 12.0925 18.9524 6.85004C18.9827 6.69499 19.0089 6.54408 19.0316 6.39664C18.9028 6.32843 18.9028 6.32843 19.0316 6.39664C19.3355 4.45898 19.0295 3.14002 17.9814 1.9459Z" fill="#27346A"/>
<path d="M8.48052 5.69863C8.61115 5.63631 8.75408 5.60407 8.89881 5.60426H14.9682C15.6869 5.60426 16.3573 5.65103 16.9698 5.74962C17.1412 5.77698 17.3118 5.80961 17.4812 5.84747C17.7213 5.90046 17.9586 5.9653 18.1923 6.04176C18.4934 6.14234 18.7739 6.25948 19.0317 6.39664C19.3355 4.45823 19.0295 3.14002 17.9814 1.9459C16.8273 0.631164 14.7429 0.0675049 12.0754 0.0675049H4.333C3.78788 0.0675049 3.32414 0.464359 3.23871 1.00244L0.0152015 21.446C-0.0488714 21.8498 0.263297 22.2144 0.671245 22.2144H5.45138L7.94169 6.42214C7.9662 6.26692 8.02804 6.11998 8.1219 5.99395C8.21576 5.86792 8.33883 5.76658 8.48052 5.69863Z" fill="#27346A"/>
<path d="M18.9524 6.85012C17.9319 12.0918 14.4383 13.9048 9.97649 13.9048H7.70464C7.1596 13.9048 6.69926 14.3018 6.61457 14.8399L5.12128 24.3064C5.06548 24.6592 5.33833 24.9789 5.69528 24.9789H9.72426C9.95505 24.9789 10.1782 24.8965 10.3537 24.7465C10.5292 24.5966 10.6454 24.389 10.6815 24.161L10.7207 23.9558L11.48 19.1432L11.529 18.8772C11.565 18.6492 11.6812 18.4417 11.8567 18.2917C12.0321 18.1418 12.2553 18.0594 12.4861 18.0593H13.0891C16.992 18.0593 20.048 16.4737 20.9411 11.888C21.3138 9.97156 21.1209 8.37156 20.1349 7.24772C19.8358 6.90732 19.4643 6.6262 19.0316 6.39673C19.0082 6.54491 18.9828 6.69507 18.9524 6.85012Z" fill="#2790C3"/>
<path d="M17.9635 5.97089C17.8044 5.92443 17.6438 5.88329 17.4819 5.84754C17.3124 5.81028 17.1419 5.77787 16.9706 5.75036C16.3573 5.6511 15.6875 5.60425 14.9681 5.60425H8.89947C8.75465 5.60401 8.61165 5.63652 8.48117 5.69937C8.3393 5.76707 8.21607 5.86834 8.12216 5.99441C8.02826 6.12049 7.96651 6.26755 7.94226 6.42288L6.65236 14.6015L6.61511 14.8399C6.69996 14.3018 7.16023 13.9048 7.70534 13.9048H9.9772C14.439 13.9048 17.9325 12.0926 18.953 6.85011C18.9834 6.69506 19.0089 6.54481 19.0323 6.39672C18.7739 6.2604 18.4941 6.14233 18.1929 6.04249C18.1169 6.01729 18.0405 5.99342 17.9636 5.97089" fill="#1F264F"/>
</g>
<defs>
<clipPath id="clip0_201_188">
<rect width="21.2" height="25" fill="white"/>
</clipPath>
</defs>
</svg>
