<svg width="38" height="25" viewBox="0 0 38 25" fill="none" xmlns="http://www.w3.org/2000/svg">
<g clip-path="url(#clip0_217_129)">
<path d="M35 25H2.5C1.83696 25 1.20107 24.7366 0.732233 24.2678C0.263392 23.7989 0 23.163 0 22.5L0 2.5C0 1.83696 0.263392 1.20107 0.732233 0.732233C1.20107 0.263392 1.83696 0 2.5 0L35 0C35.663 0 36.2989 0.263392 36.7678 0.732233C37.2366 1.20107 37.5 1.83696 37.5 2.5V22.5C37.5 23.163 37.2366 23.7989 36.7678 24.2678C36.2989 24.7366 35.663 25 35 25ZM14.6167 10.7552C14.5881 10.7556 14.5601 10.7623 14.5345 10.7749C14.5089 10.7876 14.4864 10.8057 14.4687 10.8281C14.4277 10.8699 14.4042 10.9258 14.4031 10.9844C14.4031 11.0062 14.5052 11.3177 14.724 11.9562L15.1969 13.3375L15.4167 13.9812C15.6632 14.7035 15.792 15.0875 15.8031 15.1333C15.3182 15.7338 14.8797 16.3703 14.4917 17.0375L14.4521 17.1104L14.45 17.1365C14.45 17.2406 14.5344 17.326 14.6396 17.326L14.6677 17.324H14.6667H15.9354C15.9946 17.3236 16.0526 17.3082 16.1042 17.2792C16.1558 17.2503 16.1991 17.2087 16.2302 17.1583L16.2312 17.1573L20.4312 11.0958C20.4533 11.0668 20.4654 11.0313 20.4656 10.9948L20.4646 10.9792V10.9802C20.4632 10.9217 20.4397 10.8659 20.399 10.824C20.3814 10.8016 20.3592 10.7835 20.3338 10.7709C20.3084 10.7583 20.2804 10.7515 20.2521 10.751H18.9823C18.923 10.7514 18.8648 10.7668 18.8131 10.7958C18.7613 10.8247 18.7178 10.8663 18.6865 10.9167L18.6854 10.9177L16.9354 13.4865L16.2115 11.0156C16.1929 10.9403 16.1497 10.8734 16.0887 10.8255C16.0278 10.7775 15.9525 10.7513 15.875 10.751L15.8479 10.7521H15.849L14.6167 10.7552ZM29.1771 10.6396H29.15C28.3604 10.6396 27.651 10.9823 27.1615 11.526L27.1594 11.5281C26.6239 12.0819 26.325 12.8224 26.326 13.5927V13.6208V13.6198C26.324 13.65 26.324 13.6865 26.324 13.7219C26.324 14.2812 26.5417 14.7906 26.8958 15.1687L26.8948 15.1677C27.0963 15.3639 27.3361 15.5165 27.5992 15.6158C27.8623 15.7151 28.1431 15.759 28.424 15.7448H28.4187C28.7698 15.7406 29.1031 15.6687 29.4073 15.5396L29.3906 15.5458C29.6979 15.4302 29.9583 15.25 30.1635 15.0208L30.1656 15.0187C30.1552 15.0781 30.1437 15.1281 30.1302 15.176L30.1323 15.1656C30.1137 15.2294 30.1025 15.2951 30.099 15.3615V15.3635C30.099 15.5385 30.1708 15.6271 30.3135 15.6271H31.45C31.4944 15.6311 31.5391 15.6261 31.5815 15.6125C31.624 15.5989 31.6632 15.5769 31.697 15.5479C31.7308 15.5189 31.7585 15.4834 31.7783 15.4435C31.7981 15.4036 31.8098 15.3601 31.8125 15.3156V15.3146L32.4875 11.0156C32.4939 10.9832 32.4928 10.9497 32.4843 10.9178C32.4758 10.8858 32.4602 10.8562 32.4385 10.8312C32.4198 10.8054 32.3952 10.7844 32.3668 10.7699C32.3384 10.7555 32.3069 10.7479 32.275 10.7479H31.0219C30.8687 10.7479 30.7719 10.9302 30.7406 11.2917C30.5573 11.0564 30.3161 10.8726 30.0407 10.7582C29.7652 10.6437 29.4648 10.6025 29.1687 10.6385L29.1771 10.6375V10.6396ZM10.4656 10.6396H10.4365C9.64792 10.6396 8.93854 10.9823 8.45104 11.526L8.44896 11.5281C7.9135 12.0819 7.61462 12.8224 7.61562 13.5927V13.6208V13.6198C7.60183 13.9029 7.64526 14.1859 7.74335 14.4519C7.84143 14.7179 7.99213 14.9613 8.18646 15.1677L8.18542 15.1667C8.55417 15.525 9.05833 15.7458 9.61458 15.7458L9.71458 15.7437H9.70937C10.0552 15.7385 10.3833 15.6667 10.6823 15.5385L10.6656 15.5448C10.9771 15.426 11.2417 15.2469 11.4552 15.0187L11.4562 15.0177C11.4177 15.1198 11.3938 15.2385 11.3906 15.3615V15.3635C11.3906 15.5385 11.4635 15.6271 11.6052 15.6271H12.7406C12.785 15.6311 12.8297 15.6261 12.8722 15.6125C12.9146 15.5989 12.9539 15.5769 12.9877 15.5479C13.0214 15.5189 13.0491 15.4834 13.0689 15.4435C13.0887 15.4036 13.1004 15.3601 13.1031 15.3156V15.3146L13.7792 11.0156C13.7848 10.9834 13.7833 10.9504 13.7747 10.9189C13.766 10.8873 13.7505 10.8581 13.7292 10.8333C13.7104 10.8075 13.6858 10.7865 13.6574 10.772C13.629 10.7575 13.5975 10.75 13.5656 10.75H12.3125C12.1594 10.75 12.0625 10.9323 12.0323 11.2937C11.847 11.0604 11.6055 10.8779 11.3303 10.7635C11.0552 10.649 10.7555 10.6064 10.4594 10.6396L10.4677 10.6385L10.4656 10.6396ZM33.9708 8.33333L33.9542 8.33229C33.9044 8.33211 33.8565 8.35066 33.8198 8.38425C33.7831 8.41783 33.7604 8.46399 33.7562 8.51354L32.6854 15.3667C32.6766 15.3996 32.6765 15.4343 32.6851 15.4674C32.6937 15.5004 32.7106 15.5307 32.7344 15.5552C32.7541 15.5785 32.7786 15.5973 32.8064 15.61C32.8341 15.6228 32.8643 15.6293 32.8948 15.6292H33.9885L34.0219 15.6312C34.1048 15.6312 34.1842 15.5983 34.2428 15.5397C34.3014 15.4811 34.3344 15.4016 34.3344 15.3187V15.3167L35.4031 8.58229L35.4042 8.55937C35.4041 8.49998 35.3847 8.44222 35.349 8.39479V8.39583C35.3303 8.37588 35.3077 8.35995 35.2826 8.34902C35.2575 8.3381 35.2305 8.33241 35.2031 8.33229L35.1875 8.33333H33.9708ZM21.8146 8.33333C21.7699 8.32747 21.7244 8.33109 21.6812 8.34397C21.638 8.35686 21.598 8.3787 21.5638 8.40809C21.5296 8.43748 21.5019 8.47375 21.4827 8.51454C21.4634 8.55532 21.453 8.5997 21.4521 8.64479L20.3823 15.3656C20.3768 15.3976 20.3783 15.4304 20.3868 15.4617C20.3952 15.493 20.4104 15.522 20.4312 15.5469C20.4497 15.5728 20.474 15.5939 20.5023 15.6084C20.5306 15.6229 20.562 15.6304 20.5937 15.6302H21.9531C22.0141 15.6302 22.0732 15.6089 22.1203 15.5702C22.1674 15.5314 22.1996 15.4776 22.2115 15.4177V15.4156L22.5083 13.5052C22.5172 13.4216 22.5587 13.3448 22.624 13.2917C22.695 13.2342 22.7814 13.1972 22.8719 13.1844H22.875C22.9594 13.1687 23.0562 13.1604 23.1552 13.1594C23.2427 13.1594 23.3479 13.1646 23.4687 13.176C23.6008 13.1912 23.7337 13.1982 23.8667 13.1969C24.6299 13.1981 25.3652 12.9104 25.925 12.3917L25.9229 12.3937C26.202 12.0977 26.4176 11.7477 26.5562 11.3652C26.6949 10.9827 26.7538 10.5759 26.7292 10.1698V10.1781C26.7516 9.90956 26.7055 9.6397 26.5953 9.39377C26.4851 9.14784 26.3143 8.93387 26.099 8.77187L26.0948 8.76875C25.5977 8.45443 25.0154 8.30194 24.4281 8.33229H24.4344L21.8146 8.33333ZM3.08333 8.33333C3.03976 8.32866 2.99569 8.3332 2.95398 8.34667C2.91228 8.36013 2.87387 8.38222 2.84126 8.41149C2.80864 8.44077 2.78255 8.47657 2.76468 8.51659C2.7468 8.5566 2.73754 8.59993 2.7375 8.64375V8.64583L1.66667 15.3667C1.66108 15.3986 1.66257 15.4314 1.67103 15.4627C1.67949 15.494 1.69471 15.5231 1.71562 15.5479C1.73403 15.5738 1.7584 15.5949 1.78669 15.6094C1.81497 15.624 1.84634 15.6314 1.87812 15.6312H3.13229C3.17701 15.6371 3.22245 15.6335 3.26567 15.6206C3.30889 15.6077 3.34891 15.5859 3.38311 15.5565C3.41732 15.5271 3.44494 15.4908 3.46418 15.45C3.48343 15.4093 3.49386 15.3649 3.49479 15.3198L3.79167 13.5083C3.80069 13.425 3.84178 13.3484 3.90625 13.2948C3.97732 13.2374 4.06369 13.2003 4.15417 13.1875H4.15729C4.24947 13.1712 4.34286 13.1629 4.43646 13.1625H4.4375C4.525 13.1625 4.62917 13.1677 4.75 13.1792C4.88173 13.1943 5.01428 13.2013 5.14687 13.2C5.94167 13.2 6.66458 12.8948 7.20625 12.3948L7.20417 12.3969C7.48319 12.1008 7.69866 11.7508 7.83732 11.3683C7.97597 10.9858 8.03488 10.579 8.01042 10.1729V10.1812C8.03283 9.91269 7.98678 9.64282 7.87657 9.39689C7.76636 9.15096 7.59558 8.937 7.38021 8.775L7.37604 8.77187C6.88114 8.45871 6.30164 8.30592 5.71667 8.33438H5.72292L3.08333 8.33333ZM29.1083 14.4115L29.0583 14.4125C28.7922 14.4128 28.5346 14.3186 28.3312 14.1469L28.3333 14.1479C28.2393 14.0613 28.1643 13.9561 28.113 13.8391C28.0618 13.722 28.0353 13.5955 28.0354 13.4677L28.0365 13.4208V13.3927C28.0365 13.0031 28.1937 12.65 28.449 12.3937C28.7 12.1365 29.05 11.9771 29.4375 11.9771H29.4719H29.4698L29.5052 11.976C29.7854 11.976 30.0406 12.0792 30.2365 12.249L30.2354 12.2479C30.3321 12.3375 30.4093 12.4461 30.462 12.5669C30.5147 12.6877 30.5418 12.8182 30.5417 12.95L30.5406 13V12.9979V13.0229C30.5406 13.4073 30.3812 13.7552 30.124 14.0021C29.994 14.1316 29.8398 14.2342 29.6702 14.304C29.5006 14.3739 29.3189 14.4097 29.1354 14.4094H29.1094L29.1083 14.4115ZM10.3802 14.4115L10.3281 14.4125C10.0552 14.4125 9.80417 14.3125 9.6125 14.1469L9.61354 14.1479C9.52194 14.0603 9.44905 13.9551 9.39928 13.8385C9.34951 13.722 9.32388 13.5965 9.32396 13.4698L9.325 13.4208V13.3927C9.325 13.0031 9.48229 12.65 9.7375 12.3937C9.98854 12.1365 10.3375 11.9771 10.725 11.9771H10.7615H10.7594L10.7948 11.976C11.075 11.976 11.3302 12.0792 11.526 12.249L11.525 12.2479C11.6215 12.3374 11.6984 12.4459 11.7509 12.5665C11.8034 12.6872 11.8304 12.8174 11.8302 12.949L11.8292 13V12.9979V13.0344C11.8292 13.4187 11.6698 13.7646 11.4125 14.0115C11.1455 14.2684 10.7893 14.4118 10.4187 14.4115H10.3802ZM22.7833 11.7448L23.0635 9.98333C23.0658 9.9574 23.0731 9.93216 23.0851 9.90906C23.0971 9.88596 23.1135 9.86545 23.1334 9.84872C23.1534 9.83198 23.1764 9.81933 23.2012 9.81151C23.2261 9.80369 23.2522 9.80084 23.2781 9.80312H23.574L23.6375 9.80208C23.8177 9.80208 23.9958 9.81458 24.1698 9.83854L24.15 9.83646C24.3115 9.86562 24.4521 9.93854 24.5625 10.0427C24.6254 10.1022 24.6755 10.1739 24.7097 10.2534C24.744 10.3329 24.7616 10.4186 24.7615 10.5052L24.7604 10.5448V10.5427C24.7823 10.7167 24.7609 10.8935 24.698 11.0572C24.6351 11.2209 24.5327 11.3666 24.4 11.4812L24.399 11.4823C24.067 11.6717 23.6865 11.7587 23.3052 11.7323H23.3115L22.7854 11.749L22.7833 11.7448ZM4.05521 11.7448L4.33542 9.98333C4.33751 9.95735 4.34474 9.93204 4.3567 9.90887C4.36865 9.88571 4.38508 9.86515 4.40504 9.84838C4.42501 9.83162 4.4481 9.81898 4.47298 9.81121C4.49787 9.80345 4.52405 9.8007 4.55 9.80312H4.86146C5.19496 9.77869 5.52882 9.84568 5.82708 9.99687L5.81667 9.99167C6.01354 10.1177 6.08021 10.3854 6.01458 10.7896C6.00956 10.9405 5.96832 11.0879 5.89435 11.2196C5.82039 11.3512 5.71586 11.4631 5.58958 11.5458L5.58646 11.5479C5.09273 11.7297 4.56409 11.7967 4.04062 11.7437L4.05521 11.7448Z" fill="#C8A2C8"/>
</g>
<defs>
<clipPath id="clip0_217_129">
<rect width="37.5" height="25" fill="white"/>
</clipPath>
</defs>
</svg>
