<svg width="29" height="23" viewBox="0 0 29 23" fill="none" xmlns="http://www.w3.org/2000/svg">
<path d="M22.9541 10.1207C22.9541 10.1207 23.3252 12.0098 23.4082 12.4059H21.7773C21.9385 11.9539 22.5586 10.1969 22.5586 10.1969C22.5488 10.2121 22.7197 9.73477 22.8174 9.44023L22.9541 10.1207ZM28.125 2.4375V20.3125C28.125 21.6582 27.0752 22.75 25.7812 22.75H2.34375C1.0498 22.75 0 21.6582 0 20.3125V2.4375C0 1.0918 1.0498 0 2.34375 0H25.7812C27.0752 0 28.125 1.0918 28.125 2.4375ZM7.44629 15.1938L10.5322 7.3125H8.45703L6.53809 12.6953L6.32813 11.6035L5.64453 7.97773C5.53223 7.475 5.18555 7.33281 4.75586 7.3125H1.59668L1.5625 7.46992C2.33398 7.67305 3.02246 7.96758 3.62305 8.33828L5.37109 15.1938H7.44629ZM12.0557 15.2039L13.2861 7.3125H11.3232L10.0977 15.2039H12.0557ZM18.8867 12.6242C18.8965 11.7254 18.3691 11.0398 17.2412 10.4762C16.5527 10.1156 16.1328 9.87188 16.1328 9.50117C16.1426 9.16602 16.4893 8.8207 17.2607 8.8207C17.9004 8.80547 18.3691 8.96289 18.7207 9.12031L18.8965 9.20664L19.165 7.50039C18.7793 7.34297 18.1641 7.16523 17.4072 7.16523C15.4687 7.16523 14.1064 8.2418 14.0967 9.77539C14.082 10.9078 15.0732 11.5375 15.8154 11.9184C16.5723 12.3043 16.8311 12.5582 16.8311 12.8984C16.8213 13.4266 16.2158 13.6703 15.6543 13.6703C14.873 13.6703 14.4531 13.5434 13.8135 13.2488L13.5547 13.1219L13.2812 14.8941C13.7402 15.1125 14.5898 15.3055 15.4687 15.3156C17.5293 15.3207 18.8721 14.2594 18.8867 12.6242ZM25.7812 15.2039L24.1992 7.3125H22.6807C22.2119 7.3125 21.8555 7.45469 21.6553 7.96758L18.7402 15.2039H20.8008C20.8008 15.2039 21.1377 14.2289 21.2109 14.0207H23.7305C23.7891 14.3 23.9648 15.2039 23.9648 15.2039H25.7812Z" fill="#85B6FF"/>
</svg>
