<svg width="78" height="25" viewBox="0 0 78 25" fill="none" xmlns="http://www.w3.org/2000/svg">
<g clip-path="url(#clip0_201_198)">
<path d="M39.8793 7.96026C39.8354 11.4289 42.9706 13.3645 45.3324 14.5154C47.7589 15.6961 48.5739 16.4533 48.5643 17.5094C48.5462 19.1253 46.6287 19.8386 44.8345 19.8663C41.704 19.9148 39.8839 19.0211 38.4369 18.3452L37.3092 23.622C38.761 24.291 41.4492 24.8744 44.2369 24.9C50.7806 24.9 55.0616 21.6699 55.0848 16.6618C55.1104 10.3057 46.2932 9.95394 46.3534 7.11298C46.3742 6.25153 47.1962 5.33225 48.9974 5.09852C49.889 4.98045 52.3501 4.89008 55.1405 6.17502L56.2357 1.0696C54.7351 0.523218 52.8065 2.28882e-05 50.4053 2.28882e-05C44.2462 2.28882e-05 39.9143 3.27412 39.8793 7.96026ZM66.7592 0.439783C65.5643 0.439783 64.5574 1.13677 64.108 2.20635L54.7607 24.525H61.2995L62.6007 20.9289H70.5911L71.3459 24.525H77.1092L72.0799 0.439783H66.7592ZM67.6739 6.94611L69.561 15.9904H64.3929L67.6739 6.94611ZM31.9513 0.440084L26.7971 24.5247H33.0281L38.18 0.439482L31.9513 0.440084ZM22.7336 0.440084L16.248 16.8332L13.6245 2.8943C13.3167 1.33828 12.101 0.439783 10.751 0.439783H0.149226L0.000732422 1.13918C2.17724 1.61147 4.65013 2.37322 6.14832 3.18828C7.06519 3.68617 7.32664 4.12141 7.62784 5.30454L12.5968 24.525H19.1815L29.2766 0.439783L22.7336 0.440084Z" fill="url(#paint0_linear_201_198)"/>
</g>
<defs>
<linearGradient id="paint0_linear_201_198" x1="3544.98" y1="74.8494" x2="3617.06" y2="-2482.42" gradientUnits="userSpaceOnUse">
<stop stop-color="#222357"/>
<stop offset="1" stop-color="#254AA5"/>
</linearGradient>
<clipPath id="clip0_201_198">
<rect width="77.11" height="25" fill="white"/>
</clipPath>
</defs>
</svg>
